<svg width="24" height="24" viewBox="0 0 24 24" fill="none" xmlns="http://www.w3.org/2000/svg">
<path d="M12 0C8.8174 0 5.76516 1.26428 3.51472 3.51472C1.26428 5.76516 0 8.8174 0 12C0 15.1826 1.26428 18.2348 3.51472 20.4853C5.76516 22.7357 8.8174 24 12 24C15.1826 24 18.2348 22.7357 20.4853 20.4853C22.7357 18.2348 24 15.1826 24 12C24 8.8174 22.7357 5.76516 20.4853 3.51472C18.2348 1.26428 15.1826 0 12 0V0Z" fill="#3F51B5"/>
<path d="M15.2675 11.9999H13.2174V19.3043H10.1739V11.9999H8.34784V9.56512H10.1739V8.09817C10.1751 5.96286 11.062 4.69556 13.5778 4.69556H15.6522V7.13034H14.2601C13.2807 7.13034 13.2174 7.49556 13.2174 8.17912V9.56512H15.6522L15.2675 11.9999Z" fill="white"/>
</svg>
